<?xml version="1.0" encoding="UTF-8" standalone="no"?>
<!DOCTYPE svg PUBLIC "-//W3C//DTD SVG 1.1//EN"
 "http://www.w3.org/Graphics/SVG/1.1/DTD/svg11.dtd">
<!-- Generated by graphviz version 2.43.0 (0)
 -->
<!-- Title: %3 Pages: 1 -->
<svg width="1189pt" height="864pt"
 viewBox="0.00 0.00 1189.45 863.96" xmlns="http://www.w3.org/2000/svg" xmlns:xlink="http://www.w3.org/1999/xlink">
<g id="graph0" class="graph" transform="scale(1 1) rotate(0) translate(4 859.96)">
<title>%3</title>
<polygon fill="white" stroke="transparent" points="-4,4 -4,-859.96 1185.45,-859.96 1185.45,4 -4,4"/>
<!-- start -->
<g id="node1" class="node">
<title>start</title>
<polygon fill="none" stroke="black" points="115.04,-855.96 68.29,-837.96 115.04,-819.96 161.79,-837.96 115.04,-855.96"/>
<polyline fill="none" stroke="black" points="79.48,-842.27 79.48,-833.65 "/>
<polyline fill="none" stroke="black" points="103.84,-824.27 126.24,-824.27 "/>
<polyline fill="none" stroke="black" points="150.6,-833.65 150.6,-842.27 "/>
<polyline fill="none" stroke="black" points="126.24,-851.65 103.84,-851.65 "/>
<text text-anchor="middle" x="115.04" y="-834.26" font-family="Times,serif" font-size="14.00">start</text>
</g>
<!-- exists -->
<g id="node2" class="node">
<title>exists</title>
<ellipse fill="none" stroke="black" cx="115.04" cy="-764.96" rx="115.08" ry="18"/>
<text text-anchor="middle" x="115.04" y="-761.26" font-family="Times,serif" font-size="14.00">/etc/resolv.conf exists?</text>
</g>
<!-- start&#45;&gt;exists -->
<g id="edge1" class="edge">
<title>start&#45;&gt;exists</title>
<path fill="none" stroke="black" d="M115.04,-819.77C115.04,-811.75 115.04,-802.01 115.04,-793.03"/>
<polygon fill="black" stroke="black" points="118.54,-792.99 115.04,-782.99 111.54,-792.99 118.54,-792.99"/>
</g>
<!-- overwrite -->
<g id="node3" class="node">
<title>overwrite</title>
<polygon fill="none" stroke="black" points="365.82,-265.28 365.82,-280.2 296.24,-290.74 197.84,-290.74 128.26,-280.2 128.26,-265.28 197.84,-254.74 296.24,-254.74 365.82,-265.28"/>
<polygon fill="none" stroke="black" points="369.82,-261.84 369.82,-283.64 296.54,-294.74 197.54,-294.74 124.26,-283.64 124.26,-261.84 197.54,-250.74 296.54,-250.74 369.82,-261.84"/>
<text text-anchor="middle" x="247.04" y="-269.04" font-family="Times,serif" font-size="14.00">Overwrite resolv.conf</text>
</g>
<!-- exists&#45;&gt;overwrite -->
<g id="edge2" class="edge">
<title>exists&#45;&gt;overwrite</title>
<path fill="none" stroke="black" d="M110.33,-746.81C105.61,-728.1 99.04,-697.2 99.04,-670.09 99.04,-670.09 99.04,-670.09 99.04,-371.61 99.04,-334.28 132.2,-310.37 167.12,-295.53"/>
<polygon fill="black" stroke="black" points="168.53,-298.73 176.51,-291.76 165.92,-292.24 168.53,-298.73"/>
<text text-anchor="middle" x="108.04" y="-526.02" font-family="Times,serif" font-size="14.00">no</text>
</g>
<!-- resolvconf_symlinked_systemdresolved -->
<g id="node4" class="node">
<title>resolvconf_symlinked_systemdresolved</title>
<ellipse fill="none" stroke="black" cx="303.04" cy="-669.09" rx="119.5" ry="26.74"/>
<text text-anchor="middle" x="303.04" y="-672.89" font-family="Times,serif" font-size="14.00">resolv.conf is symlink</text>
<text text-anchor="middle" x="303.04" y="-657.89" font-family="Times,serif" font-size="14.00">to systemd&#45;resolved?</text>
</g>
<!-- exists&#45;&gt;resolvconf_symlinked_systemdresolved -->
<g id="edge3" class="edge">
<title>exists&#45;&gt;resolvconf_symlinked_systemdresolved</title>
<path fill="none" stroke="black" d="M147.79,-747.61C174.88,-734.08 214.01,-714.54 246.2,-698.47"/>
<polygon fill="black" stroke="black" points="248.13,-701.42 255.52,-693.82 245.01,-695.16 248.13,-701.42"/>
<text text-anchor="middle" x="227.54" y="-717.76" font-family="Times,serif" font-size="14.00">yes</text>
</g>
<!-- systemdresolved_running2 -->
<g id="node17" class="node">
<title>systemdresolved_running2</title>
<ellipse fill="none" stroke="black" cx="514.04" cy="-91" rx="136.48" ry="18"/>
<text text-anchor="middle" x="514.04" y="-87.3" font-family="Times,serif" font-size="14.00">systemd&#45;resolved running?</text>
</g>
<!-- overwrite&#45;&gt;systemdresolved_running2 -->
<g id="edge23" class="edge">
<title>overwrite&#45;&gt;systemdresolved_running2</title>
<path fill="none" stroke="black" d="M264.13,-250.43C284.6,-226 320.93,-186.01 359.04,-160 388.83,-139.67 425.67,-123.21 455.97,-111.57"/>
<polygon fill="black" stroke="black" points="457.43,-114.76 465.56,-107.97 454.96,-108.21 457.43,-114.76"/>
</g>
<!-- resolv_conf_contains_resolvconf -->
<g id="node5" class="node">
<title>resolv_conf_contains_resolvconf</title>
<ellipse fill="none" stroke="black" cx="303.04" cy="-573.22" rx="162.47" ry="18"/>
<text text-anchor="middle" x="303.04" y="-569.52" font-family="Times,serif" font-size="14.00">resolv.conf contains &#39;resolvconf&#39;?</text>
</g>
<!-- resolvconf_symlinked_systemdresolved&#45;&gt;resolv_conf_contains_resolvconf -->
<g id="edge4" class="edge">
<title>resolvconf_symlinked_systemdresolved&#45;&gt;resolv_conf_contains_resolvconf</title>
<path fill="none" stroke="black" d="M303.04,-642.19C303.04,-629.56 303.04,-614.36 303.04,-601.54"/>
<polygon fill="black" stroke="black" points="306.54,-601.44 303.04,-591.44 299.54,-601.44 306.54,-601.44"/>
<text text-anchor="middle" x="312.04" y="-613.02" font-family="Times,serif" font-size="14.00">no</text>
</g>
<!-- systemdresolved_running -->
<g id="node6" class="node">
<title>systemdresolved_running</title>
<ellipse fill="none" stroke="black" cx="620.04" cy="-573.22" rx="136.48" ry="18"/>
<text text-anchor="middle" x="620.04" y="-569.52" font-family="Times,serif" font-size="14.00">systemd&#45;resolved running?</text>
</g>
<!-- resolvconf_symlinked_systemdresolved&#45;&gt;systemdresolved_running -->
<g id="edge5" class="edge">
<title>resolvconf_symlinked_systemdresolved&#45;&gt;systemdresolved_running</title>
<path fill="none" stroke="black" d="M373.39,-647.26C428.51,-630.94 504.49,-608.44 557.5,-592.74"/>
<polygon fill="black" stroke="black" points="558.53,-596.09 567.12,-589.89 556.54,-589.37 558.53,-596.09"/>
<text text-anchor="middle" x="511.54" y="-613.02" font-family="Times,serif" font-size="14.00">yes</text>
</g>
<!-- resolv_conf_contains_nm -->
<g id="node7" class="node">
<title>resolv_conf_contains_nm</title>
<ellipse fill="none" stroke="black" cx="303.04" cy="-477.35" rx="111.03" ry="26.74"/>
<text text-anchor="middle" x="303.04" y="-481.15" font-family="Times,serif" font-size="14.00">resolv.conf contains</text>
<text text-anchor="middle" x="303.04" y="-466.15" font-family="Times,serif" font-size="14.00">&#39;NetworkManager&#39;?</text>
</g>
<!-- resolv_conf_contains_resolvconf&#45;&gt;resolv_conf_contains_nm -->
<g id="edge6" class="edge">
<title>resolv_conf_contains_resolvconf&#45;&gt;resolv_conf_contains_nm</title>
<path fill="none" stroke="black" d="M303.04,-555C303.04,-543.7 303.04,-528.49 303.04,-514.6"/>
<polygon fill="black" stroke="black" points="306.54,-514.32 303.04,-504.32 299.54,-514.32 306.54,-514.32"/>
<text text-anchor="middle" x="312.04" y="-526.02" font-family="Times,serif" font-size="14.00">no</text>
</g>
<!-- resolvconf_source_is_nm -->
<g id="node8" class="node">
<title>resolvconf_source_is_nm</title>
<ellipse fill="none" stroke="black" cx="626.04" cy="-477.35" rx="117.26" ry="26.74"/>
<text text-anchor="middle" x="626.04" y="-481.15" font-family="Times,serif" font-size="14.00">resolvconf source</text>
<text text-anchor="middle" x="626.04" y="-466.15" font-family="Times,serif" font-size="14.00">is NetworkManager?</text>
</g>
<!-- resolv_conf_contains_resolvconf&#45;&gt;resolvconf_source_is_nm -->
<g id="edge7" class="edge">
<title>resolv_conf_contains_resolvconf&#45;&gt;resolvconf_source_is_nm</title>
<path fill="none" stroke="black" d="M358.2,-556.19C409.64,-541.24 486.99,-518.76 545.36,-501.8"/>
<polygon fill="black" stroke="black" points="546.66,-505.06 555.29,-498.91 544.71,-498.34 546.66,-505.06"/>
<text text-anchor="middle" x="486.54" y="-526.02" font-family="Times,serif" font-size="14.00">yes</text>
</g>
<!-- systemdresolved_running&#45;&gt;overwrite -->
<g id="edge8" class="edge">
<title>systemdresolved_running&#45;&gt;overwrite</title>
<path fill="none" stroke="black" d="M528.35,-559.74C515.78,-554.51 504.1,-547.26 495.04,-537.22 437.18,-473.11 518.27,-411.28 462.04,-345.74 444.7,-325.53 385.65,-306.58 333.81,-293.19"/>
<polygon fill="black" stroke="black" points="334.44,-289.74 323.89,-290.67 332.72,-296.53 334.44,-289.74"/>
<text text-anchor="middle" x="490.04" y="-421.28" font-family="Times,serif" font-size="14.00">no</text>
</g>
<!-- networkmanager_running_with_systemdresolved -->
<g id="node9" class="node">
<title>networkmanager_running_with_systemdresolved</title>
<ellipse fill="none" stroke="black" cx="927.04" cy="-477.35" rx="100.32" ry="26.74"/>
<text text-anchor="middle" x="927.04" y="-481.15" font-family="Times,serif" font-size="14.00">NetworkManager</text>
<text text-anchor="middle" x="927.04" y="-466.15" font-family="Times,serif" font-size="14.00">running?</text>
</g>
<!-- systemdresolved_running&#45;&gt;networkmanager_running_with_systemdresolved -->
<g id="edge9" class="edge">
<title>systemdresolved_running&#45;&gt;networkmanager_running_with_systemdresolved</title>
<path fill="none" stroke="black" d="M671.42,-556.51C721.02,-541.34 796.65,-518.22 852.79,-501.05"/>
<polygon fill="black" stroke="black" points="854.14,-504.3 862.68,-498.03 852.09,-497.61 854.14,-504.3"/>
<text text-anchor="middle" x="794.54" y="-526.02" font-family="Times,serif" font-size="14.00">yes</text>
</g>
<!-- resolv_conf_contains_nm&#45;&gt;overwrite -->
<g id="edge10" class="edge">
<title>resolv_conf_contains_nm&#45;&gt;overwrite</title>
<path fill="none" stroke="black" d="M230.36,-457.02C201.37,-445.35 170.93,-427.2 154.04,-399.48 141.61,-379.08 143.52,-367.18 154.04,-345.74 163.15,-327.16 179.62,-312.01 196.2,-300.48"/>
<polygon fill="black" stroke="black" points="198.42,-303.21 204.84,-294.79 194.56,-297.37 198.42,-303.21"/>
<text text-anchor="middle" x="163.04" y="-368.91" font-family="Times,serif" font-size="14.00">no</text>
</g>
<!-- networkmanager_running -->
<g id="node10" class="node">
<title>networkmanager_running</title>
<ellipse fill="none" stroke="black" cx="317.04" cy="-372.61" rx="136.48" ry="18"/>
<text text-anchor="middle" x="317.04" y="-368.91" font-family="Times,serif" font-size="14.00">NetworkManager running?</text>
</g>
<!-- resolv_conf_contains_nm&#45;&gt;networkmanager_running -->
<g id="edge11" class="edge">
<title>resolv_conf_contains_nm&#45;&gt;networkmanager_running</title>
<path fill="none" stroke="black" d="M306.57,-450.42C308.64,-435.26 311.25,-416.13 313.34,-400.76"/>
<polygon fill="black" stroke="black" points="316.81,-401.19 314.7,-390.81 309.88,-400.25 316.81,-401.19"/>
<text text-anchor="middle" x="323.54" y="-421.28" font-family="Times,serif" font-size="14.00">yes</text>
</g>
<!-- networkmanager_running_by_resolvconf -->
<g id="node11" class="node">
<title>networkmanager_running_by_resolvconf</title>
<ellipse fill="none" stroke="black" cx="609.04" cy="-372.61" rx="100.32" ry="26.74"/>
<text text-anchor="middle" x="609.04" y="-376.41" font-family="Times,serif" font-size="14.00">NetworkManager</text>
<text text-anchor="middle" x="609.04" y="-361.41" font-family="Times,serif" font-size="14.00">running?</text>
</g>
<!-- resolvconf_source_is_nm&#45;&gt;networkmanager_running_by_resolvconf -->
<g id="edge12" class="edge">
<title>resolvconf_source_is_nm&#45;&gt;networkmanager_running_by_resolvconf</title>
<path fill="none" stroke="black" d="M621.75,-450.42C619.7,-438.01 617.2,-422.95 614.97,-409.46"/>
<polygon fill="black" stroke="black" points="618.41,-408.82 613.33,-399.53 611.51,-409.96 618.41,-408.82"/>
<text text-anchor="middle" x="630.54" y="-421.28" font-family="Times,serif" font-size="14.00">yes</text>
</g>
<!-- use_resolvconf -->
<g id="node13" class="node">
<title>use_resolvconf</title>
<polygon fill="none" stroke="black" points="833.7,-265.28 833.7,-280.2 783.52,-290.74 712.56,-290.74 662.38,-280.2 662.38,-265.28 712.56,-254.74 783.52,-254.74 833.7,-265.28"/>
<polygon fill="none" stroke="black" points="837.69,-262.04 837.69,-283.44 783.94,-294.74 712.14,-294.74 658.39,-283.44 658.39,-262.04 712.14,-250.74 783.94,-250.74 837.69,-262.04"/>
<text text-anchor="middle" x="748.04" y="-269.04" font-family="Times,serif" font-size="14.00">Use resolvconf</text>
</g>
<!-- resolvconf_source_is_nm&#45;&gt;use_resolvconf -->
<g id="edge13" class="edge">
<title>resolvconf_source_is_nm&#45;&gt;use_resolvconf</title>
<path fill="none" stroke="black" d="M665.68,-451.96C684.2,-438.63 705,-420.54 718.04,-399.48 735.98,-370.51 743.19,-331.67 746.09,-304.86"/>
<polygon fill="black" stroke="black" points="749.58,-305.15 747.03,-294.87 742.61,-304.5 749.58,-305.15"/>
<text text-anchor="middle" x="747.04" y="-368.91" font-family="Times,serif" font-size="14.00">no</text>
</g>
<!-- nm_backend_is_systemdresolved -->
<g id="node12" class="node">
<title>nm_backend_is_systemdresolved</title>
<ellipse fill="none" stroke="black" cx="927.04" cy="-372.61" rx="145.83" ry="26.74"/>
<text text-anchor="middle" x="927.04" y="-376.41" font-family="Times,serif" font-size="14.00">NetworkManager backend</text>
<text text-anchor="middle" x="927.04" y="-361.41" font-family="Times,serif" font-size="14.00">is systemd&#45;resolved?</text>
</g>
<!-- networkmanager_running_with_systemdresolved&#45;&gt;nm_backend_is_systemdresolved -->
<g id="edge14" class="edge">
<title>networkmanager_running_with_systemdresolved&#45;&gt;nm_backend_is_systemdresolved</title>
<path fill="none" stroke="black" d="M927.04,-450.42C927.04,-438.14 927.04,-423.25 927.04,-409.86"/>
<polygon fill="black" stroke="black" points="930.54,-409.53 927.04,-399.53 923.54,-409.53 930.54,-409.53"/>
<text text-anchor="middle" x="939.54" y="-421.28" font-family="Times,serif" font-size="14.00">yes</text>
</g>
<!-- use_systemdresolved -->
<g id="node14" class="node">
<title>use_systemdresolved</title>
<polygon fill="none" stroke="black" points="1177.36,-265.28 1177.36,-280.2 1105.71,-290.74 1004.37,-290.74 932.72,-280.2 932.72,-265.28 1004.37,-254.74 1105.71,-254.74 1177.36,-265.28"/>
<polygon fill="none" stroke="black" points="1181.36,-261.83 1181.36,-283.65 1106,-294.74 1004.08,-294.74 928.72,-283.65 928.72,-261.83 1004.08,-250.74 1106,-250.74 1181.36,-261.83"/>
<text text-anchor="middle" x="1055.04" y="-269.04" font-family="Times,serif" font-size="14.00">Use systemd&#45;resolved</text>
</g>
<!-- networkmanager_running_with_systemdresolved&#45;&gt;use_systemdresolved -->
<g id="edge15" class="edge">
<title>networkmanager_running_with_systemdresolved&#45;&gt;use_systemdresolved</title>
<path fill="none" stroke="black" d="M999.74,-458.79C1030.7,-447.33 1063.83,-428.83 1082.04,-399.48 1100.15,-370.29 1086.74,-330.77 1073.15,-303.88"/>
<polygon fill="black" stroke="black" points="1076.18,-302.11 1068.39,-294.93 1070,-305.4 1076.18,-302.11"/>
<text text-anchor="middle" x="1099.04" y="-368.91" font-family="Times,serif" font-size="14.00">no</text>
</g>
<!-- networkmanager_running&#45;&gt;overwrite -->
<g id="edge16" class="edge">
<title>networkmanager_running&#45;&gt;overwrite</title>
<path fill="none" stroke="black" d="M304.85,-354.56C294.77,-340.48 280.23,-320.15 268.26,-303.41"/>
<polygon fill="black" stroke="black" points="270.93,-301.13 262.27,-295.03 265.24,-305.2 270.93,-301.13"/>
<text text-anchor="middle" x="294.04" y="-316.54" font-family="Times,serif" font-size="14.00">no</text>
</g>
<!-- use_networkmanager -->
<g id="node15" class="node">
<title>use_networkmanager</title>
<polygon fill="none" stroke="black" points="636.36,-265.28 636.36,-280.2 564.71,-290.74 463.37,-290.74 391.72,-280.2 391.72,-265.28 463.37,-254.74 564.71,-254.74 636.36,-265.28"/>
<polygon fill="none" stroke="black" points="640.36,-261.83 640.36,-283.65 565,-294.74 463.08,-294.74 387.72,-283.65 387.72,-261.83 463.08,-250.74 565,-250.74 640.36,-261.83"/>
<text text-anchor="middle" x="514.04" y="-269.04" font-family="Times,serif" font-size="14.00">Use NetworkManager</text>
</g>
<!-- networkmanager_running&#45;&gt;use_networkmanager -->
<g id="edge17" class="edge">
<title>networkmanager_running&#45;&gt;use_networkmanager</title>
<path fill="none" stroke="black" d="M350.46,-355.01C381.09,-339.79 426.93,-317.02 462.29,-299.45"/>
<polygon fill="black" stroke="black" points="464.11,-302.45 471.51,-294.87 460.99,-296.19 464.11,-302.45"/>
<text text-anchor="middle" x="446.54" y="-316.54" font-family="Times,serif" font-size="14.00">yes</text>
</g>
<!-- networkmanager_running_by_resolvconf&#45;&gt;use_resolvconf -->
<g id="edge19" class="edge">
<title>networkmanager_running_by_resolvconf&#45;&gt;use_resolvconf</title>
<path fill="none" stroke="black" d="M623.36,-345.86C630.72,-334.49 640.57,-321.7 652.04,-312.74 661.14,-305.63 671.72,-299.64 682.45,-294.64"/>
<polygon fill="black" stroke="black" points="684.14,-297.73 691.89,-290.51 681.33,-291.31 684.14,-297.73"/>
<text text-anchor="middle" x="661.04" y="-316.54" font-family="Times,serif" font-size="14.00">no</text>
</g>
<!-- networkmanager_running_by_resolvconf&#45;&gt;use_networkmanager -->
<g id="edge18" class="edge">
<title>networkmanager_running_by_resolvconf&#45;&gt;use_networkmanager</title>
<path fill="none" stroke="black" d="M584.57,-346.41C571.49,-332.93 555.34,-316.29 541.79,-302.33"/>
<polygon fill="black" stroke="black" points="544.04,-299.63 534.57,-294.89 539.02,-304.5 544.04,-299.63"/>
<text text-anchor="middle" x="576.54" y="-316.54" font-family="Times,serif" font-size="14.00">yes</text>
</g>
<!-- nm_backend_is_systemdresolved&#45;&gt;use_systemdresolved -->
<g id="edge21" class="edge">
<title>nm_backend_is_systemdresolved&#45;&gt;use_systemdresolved</title>
<path fill="none" stroke="black" d="M960,-346.41C978.2,-332.49 1000.81,-315.2 1019.41,-300.98"/>
<polygon fill="black" stroke="black" points="1021.56,-303.74 1027.38,-294.89 1017.31,-298.18 1021.56,-303.74"/>
<text text-anchor="middle" x="1011.04" y="-316.54" font-family="Times,serif" font-size="14.00">no</text>
</g>
<!-- nm_backend_is_systemdresolved&#45;&gt;use_networkmanager -->
<g id="edge20" class="edge">
<title>nm_backend_is_systemdresolved&#45;&gt;use_networkmanager</title>
<path fill="none" stroke="black" d="M840.21,-351.03C768.92,-334.14 668.57,-310.36 598.05,-293.65"/>
<polygon fill="black" stroke="black" points="598.84,-290.24 588.31,-291.34 597.23,-297.05 598.84,-290.24"/>
<text text-anchor="middle" x="744.54" y="-316.54" font-family="Times,serif" font-size="14.00">yes</text>
</g>
<!-- use_resolvconf&#45;&gt;systemdresolved_running2 -->
<g id="edge25" class="edge">
<title>use_resolvconf&#45;&gt;systemdresolved_running2</title>
<path fill="none" stroke="black" d="M737.65,-250.59C724.61,-225.95 700.15,-185.38 669.04,-160 642.33,-138.21 607.56,-122.11 577.71,-111.06"/>
<polygon fill="black" stroke="black" points="578.81,-107.74 568.21,-107.65 576.44,-114.32 578.81,-107.74"/>
</g>
<!-- nm_backend_is_systemdresolved2 -->
<g id="node16" class="node">
<title>nm_backend_is_systemdresolved2</title>
<ellipse fill="none" stroke="black" cx="514.04" cy="-186.87" rx="145.83" ry="26.74"/>
<text text-anchor="middle" x="514.04" y="-190.67" font-family="Times,serif" font-size="14.00">NetworkManager backend</text>
<text text-anchor="middle" x="514.04" y="-175.67" font-family="Times,serif" font-size="14.00">is systemd&#45;resolved</text>
</g>
<!-- use_networkmanager&#45;&gt;nm_backend_is_systemdresolved2 -->
<g id="edge22" class="edge">
<title>use_networkmanager&#45;&gt;nm_backend_is_systemdresolved2</title>
<path fill="none" stroke="black" d="M514.04,-250.58C514.04,-242.47 514.04,-232.97 514.04,-223.86"/>
<polygon fill="black" stroke="black" points="517.54,-223.83 514.04,-213.83 510.54,-223.83 517.54,-223.83"/>
</g>
<!-- nm_backend_is_systemdresolved2&#45;&gt;systemdresolved_running2 -->
<g id="edge24" class="edge">
<title>nm_backend_is_systemdresolved2&#45;&gt;systemdresolved_running2</title>
<path fill="none" stroke="black" d="M514.04,-159.97C514.04,-147.34 514.04,-132.14 514.04,-119.32"/>
<polygon fill="black" stroke="black" points="517.54,-119.22 514.04,-109.22 510.54,-119.22 517.54,-119.22"/>
<text text-anchor="middle" x="523.04" y="-130.8" font-family="Times,serif" font-size="14.00">no</text>
</g>
<!-- also_configure_systemdresolved -->
<g id="node18" class="node">
<title>also_configure_systemdresolved</title>
<ellipse fill="none" stroke="black" cx="514.04" cy="-18" rx="161.37" ry="18"/>
<text text-anchor="middle" x="514.04" y="-14.3" font-family="Times,serif" font-size="14.00">Also configure systemd&#45;resolved</text>
</g>
<!-- systemdresolved_running2&#45;&gt;also_configure_systemdresolved -->
<g id="edge26" class="edge">
<title>systemdresolved_running2&#45;&gt;also_configure_systemdresolved</title>
<path fill="none" stroke="black" d="M514.04,-72.81C514.04,-64.79 514.04,-55.05 514.04,-46.07"/>
<polygon fill="black" stroke="black" points="517.54,-46.03 514.04,-36.03 510.54,-46.03 517.54,-46.03"/>
</g>
</g>
</svg>
