<?xml version="1.0" encoding="UTF-8" standalone="no"?>
<!DOCTYPE svg PUBLIC "-//W3C//DTD SVG 1.1//EN"
 "http://www.w3.org/Graphics/SVG/1.1/DTD/svg11.dtd">
<!-- Generated by graphviz version 2.43.0 (0)
 -->
<!-- Title: %3 Pages: 1 -->
<svg width="1255pt" height="631pt"
 viewBox="0.00 0.00 1255.23 630.96" xmlns="http://www.w3.org/2000/svg" xmlns:xlink="http://www.w3.org/1999/xlink">
<g id="graph0" class="graph" transform="scale(1 1) rotate(0) translate(4 626.96)">
<title>%3</title>
<polygon fill="white" stroke="transparent" points="-4,4 -4,-626.96 1251.23,-626.96 1251.23,4 -4,4"/>
<!-- start -->
<g id="node1" class="node">
<title>start</title>
<polygon fill="none" stroke="black" points="926.41,-622.96 879.65,-604.96 926.41,-586.96 973.16,-604.96 926.41,-622.96"/>
<polyline fill="none" stroke="black" points="890.85,-609.27 890.85,-600.65 "/>
<polyline fill="none" stroke="black" points="915.21,-591.27 937.61,-591.27 "/>
<polyline fill="none" stroke="black" points="961.96,-600.65 961.96,-609.27 "/>
<polyline fill="none" stroke="black" points="937.61,-618.65 915.21,-618.65 "/>
<text text-anchor="middle" x="926.41" y="-601.26" font-family="Times,serif" font-size="14.00">start</text>
</g>
<!-- exists -->
<g id="node2" class="node">
<title>exists</title>
<ellipse fill="none" stroke="black" cx="926.41" cy="-531.96" rx="115.08" ry="18"/>
<text text-anchor="middle" x="926.41" y="-528.26" font-family="Times,serif" font-size="14.00">/etc/resolv.conf exists?</text>
</g>
<!-- start&#45;&gt;exists -->
<g id="edge1" class="edge">
<title>start&#45;&gt;exists</title>
<path fill="none" stroke="black" d="M926.41,-586.77C926.41,-578.75 926.41,-569.01 926.41,-560.03"/>
<polygon fill="black" stroke="black" points="929.91,-559.99 926.41,-549.99 922.91,-559.99 929.91,-559.99"/>
</g>
<!-- owner -->
<g id="node3" class="node">
<title>owner</title>
<ellipse fill="none" stroke="black" cx="727.41" cy="-436.09" rx="86.03" ry="26.74"/>
<text text-anchor="middle" x="727.41" y="-439.89" font-family="Times,serif" font-size="14.00">resolv.conf has</text>
<text text-anchor="middle" x="727.41" y="-424.89" font-family="Times,serif" font-size="14.00">known owner?</text>
</g>
<!-- exists&#45;&gt;owner -->
<g id="edge3" class="edge">
<title>exists&#45;&gt;owner</title>
<path fill="none" stroke="black" d="M891.74,-514.61C861.69,-500.43 817.66,-479.66 782.74,-463.19"/>
<polygon fill="black" stroke="black" points="784.15,-459.99 773.61,-458.88 781.16,-466.32 784.15,-459.99"/>
<text text-anchor="middle" x="862.91" y="-484.76" font-family="Times,serif" font-size="14.00">yes</text>
</g>
<!-- overwrite -->
<g id="node4" class="node">
<title>overwrite</title>
<polygon fill="none" stroke="black" points="872.19,-14.54 872.19,-29.46 802.61,-40 704.21,-40 634.62,-29.46 634.62,-14.54 704.21,-4 802.61,-4 872.19,-14.54"/>
<polygon fill="none" stroke="black" points="876.19,-11.1 876.19,-32.9 802.91,-44 703.9,-44 630.63,-32.9 630.63,-11.1 703.9,0 802.91,0 876.19,-11.1"/>
<text text-anchor="middle" x="753.41" y="-18.3" font-family="Times,serif" font-size="14.00">Overwrite resolv.conf</text>
</g>
<!-- exists&#45;&gt;overwrite -->
<g id="edge2" class="edge">
<title>exists&#45;&gt;overwrite</title>
<path fill="none" stroke="black" d="M1020.77,-521.57C1071.77,-510.69 1124.41,-487.31 1124.41,-437.09 1124.41,-437.09 1124.41,-437.09 1124.41,-120.87 1124.41,-70.13 993.04,-45.12 886.64,-33.19"/>
<polygon fill="black" stroke="black" points="886.75,-29.68 876.43,-32.07 885.99,-36.64 886.75,-29.68"/>
<text text-anchor="middle" x="1133.41" y="-275.28" font-family="Times,serif" font-size="14.00">no</text>
</g>
<!-- owner&#45;&gt;overwrite -->
<g id="edge9" class="edge">
<title>owner&#45;&gt;overwrite</title>
<path fill="none" stroke="black" d="M727.41,-408.91C727.41,-388.15 727.41,-358.39 727.41,-332.35 727.41,-332.35 727.41,-332.35 727.41,-173.24 727.41,-131.56 737.24,-84.33 744.81,-54.13"/>
<polygon fill="black" stroke="black" points="748.27,-54.75 747.38,-44.2 741.49,-53 748.27,-54.75"/>
<text text-anchor="middle" x="736.41" y="-222.91" font-family="Times,serif" font-size="14.00">no</text>
</g>
<!-- systemdresolved_running -->
<g id="node5" class="node">
<title>systemdresolved_running</title>
<ellipse fill="none" stroke="black" cx="563.41" cy="-331.35" rx="136.48" ry="18"/>
<text text-anchor="middle" x="563.41" y="-327.65" font-family="Times,serif" font-size="14.00">systemd&#45;resolved running?</text>
</g>
<!-- owner&#45;&gt;systemdresolved_running -->
<g id="edge7" class="edge">
<title>owner&#45;&gt;systemdresolved_running</title>
<path fill="none" stroke="black" d="M650.25,-423.78C627.84,-417.32 604.75,-407.17 587.41,-391.22 578.33,-382.87 572.6,-370.59 569.03,-359.4"/>
<polygon fill="black" stroke="black" points="572.36,-358.29 566.32,-349.57 565.61,-360.15 572.36,-358.29"/>
<text text-anchor="middle" x="650.41" y="-380.02" font-family="Times,serif" font-size="14.00">systemd&#45;resolved</text>
</g>
<!-- resolvconf_source -->
<g id="node6" class="node">
<title>resolvconf_source</title>
<ellipse fill="none" stroke="black" cx="872.41" cy="-331.35" rx="117.26" ry="26.74"/>
<text text-anchor="middle" x="872.41" y="-335.15" font-family="Times,serif" font-size="14.00">resolvconf source</text>
<text text-anchor="middle" x="872.41" y="-320.15" font-family="Times,serif" font-size="14.00">is NetworkManager?</text>
</g>
<!-- owner&#45;&gt;resolvconf_source -->
<g id="edge8" class="edge">
<title>owner&#45;&gt;resolvconf_source</title>
<path fill="none" stroke="black" d="M761.04,-411.26C781.27,-396.92 807.25,-378.52 829.02,-363.09"/>
<polygon fill="black" stroke="black" points="831.31,-365.76 837.45,-357.12 827.26,-360.05 831.31,-365.76"/>
<text text-anchor="middle" x="845.41" y="-380.02" font-family="Times,serif" font-size="14.00">resolvconf</text>
</g>
<!-- networkmanager_running -->
<g id="node10" class="node">
<title>networkmanager_running</title>
<ellipse fill="none" stroke="black" cx="517.41" cy="-121.87" rx="136.48" ry="18"/>
<text text-anchor="middle" x="517.41" y="-118.17" font-family="Times,serif" font-size="14.00">NetworkManager running?</text>
</g>
<!-- owner&#45;&gt;networkmanager_running -->
<g id="edge6" class="edge">
<title>owner&#45;&gt;networkmanager_running</title>
<path fill="none" stroke="black" d="M646.81,-426.23C564.92,-415.37 446.28,-393.88 418.41,-358.22 366.02,-291.2 447.8,-192.41 492.04,-147.14"/>
<polygon fill="black" stroke="black" points="494.74,-149.4 499.31,-139.84 489.77,-144.46 494.74,-149.4"/>
<text text-anchor="middle" x="470.41" y="-275.28" font-family="Times,serif" font-size="14.00">NetworkManager</text>
</g>
<!-- systemdresolved_running&#45;&gt;overwrite -->
<g id="edge5" class="edge">
<title>systemdresolved_running&#45;&gt;overwrite</title>
<path fill="none" stroke="black" d="M573.18,-313.1C597.71,-270.06 664.3,-154.68 725.41,-62 727.46,-58.89 729.64,-55.69 731.85,-52.51"/>
<polygon fill="black" stroke="black" points="734.78,-54.43 737.69,-44.24 729.06,-50.39 734.78,-54.43"/>
<text text-anchor="middle" x="666.41" y="-170.54" font-family="Times,serif" font-size="14.00">no</text>
</g>
<!-- networkmanager_running_with_systemdresolved -->
<g id="node7" class="node">
<title>networkmanager_running_with_systemdresolved</title>
<ellipse fill="none" stroke="black" cx="217.41" cy="-226.61" rx="100.32" ry="26.74"/>
<text text-anchor="middle" x="217.41" y="-230.41" font-family="Times,serif" font-size="14.00">NetworkManager</text>
<text text-anchor="middle" x="217.41" y="-215.41" font-family="Times,serif" font-size="14.00">running?</text>
</g>
<!-- systemdresolved_running&#45;&gt;networkmanager_running_with_systemdresolved -->
<g id="edge4" class="edge">
<title>systemdresolved_running&#45;&gt;networkmanager_running_with_systemdresolved</title>
<path fill="none" stroke="black" d="M479.97,-317.1C440.76,-309.84 393.68,-299.61 352.41,-286.48 325.63,-277.96 296.96,-265.9 272.96,-254.92"/>
<polygon fill="black" stroke="black" points="274.21,-251.64 263.66,-250.61 271.27,-257.99 274.21,-251.64"/>
<text text-anchor="middle" x="364.91" y="-275.28" font-family="Times,serif" font-size="14.00">yes</text>
</g>
<!-- networkmanager_running_by_resolvconf -->
<g id="node8" class="node">
<title>networkmanager_running_by_resolvconf</title>
<ellipse fill="none" stroke="black" cx="863.41" cy="-226.61" rx="100.32" ry="26.74"/>
<text text-anchor="middle" x="863.41" y="-230.41" font-family="Times,serif" font-size="14.00">NetworkManager</text>
<text text-anchor="middle" x="863.41" y="-215.41" font-family="Times,serif" font-size="14.00">running?</text>
</g>
<!-- resolvconf_source&#45;&gt;networkmanager_running_by_resolvconf -->
<g id="edge17" class="edge">
<title>resolvconf_source&#45;&gt;networkmanager_running_by_resolvconf</title>
<path fill="none" stroke="black" d="M870.14,-304.42C869.06,-292.14 867.76,-277.25 866.58,-263.86"/>
<polygon fill="black" stroke="black" points="870.04,-263.18 865.68,-253.53 863.06,-263.79 870.04,-263.18"/>
<text text-anchor="middle" x="880.91" y="-275.28" font-family="Times,serif" font-size="14.00">yes</text>
</g>
<!-- resolvconf_binary -->
<g id="node11" class="node">
<title>resolvconf_binary</title>
<ellipse fill="none" stroke="black" cx="956.41" cy="-121.87" rx="140.28" ry="18"/>
<text text-anchor="middle" x="956.41" y="-118.17" font-family="Times,serif" font-size="14.00">resolvconf binary available?</text>
</g>
<!-- resolvconf_source&#45;&gt;resolvconf_binary -->
<g id="edge16" class="edge">
<title>resolvconf_source&#45;&gt;resolvconf_binary</title>
<path fill="none" stroke="black" d="M919.87,-306.64C939.97,-293.88 961.28,-276.07 972.41,-253.48 988.77,-220.26 978,-176.75 967.89,-149.29"/>
<polygon fill="black" stroke="black" points="971.14,-148 964.25,-139.95 964.62,-150.54 971.14,-148"/>
<text text-anchor="middle" x="989.41" y="-222.91" font-family="Times,serif" font-size="14.00">no</text>
</g>
<!-- nm_backend_is_systemdresolved -->
<g id="node9" class="node">
<title>nm_backend_is_systemdresolved</title>
<ellipse fill="none" stroke="black" cx="217.41" cy="-121.87" rx="145.83" ry="26.74"/>
<text text-anchor="middle" x="217.41" y="-125.67" font-family="Times,serif" font-size="14.00">NetworkManager backend</text>
<text text-anchor="middle" x="217.41" y="-110.67" font-family="Times,serif" font-size="14.00">is systemd&#45;resolved</text>
</g>
<!-- networkmanager_running_with_systemdresolved&#45;&gt;nm_backend_is_systemdresolved -->
<g id="edge11" class="edge">
<title>networkmanager_running_with_systemdresolved&#45;&gt;nm_backend_is_systemdresolved</title>
<path fill="none" stroke="black" d="M217.41,-199.68C217.41,-187.4 217.41,-172.51 217.41,-159.12"/>
<polygon fill="black" stroke="black" points="220.91,-158.79 217.41,-148.79 213.91,-158.79 220.91,-158.79"/>
<text text-anchor="middle" x="229.91" y="-170.54" font-family="Times,serif" font-size="14.00">yes</text>
</g>
<!-- use_systemdresolved -->
<g id="node12" class="node">
<title>use_systemdresolved</title>
<polygon fill="none" stroke="black" points="248.73,-14.54 248.73,-29.46 177.07,-40 75.74,-40 4.09,-29.46 4.09,-14.54 75.74,-4 177.07,-4 248.73,-14.54"/>
<polygon fill="none" stroke="black" points="252.72,-11.09 252.72,-32.91 177.37,-44 75.45,-44 0.09,-32.91 0.09,-11.09 75.45,0 177.37,0 252.72,-11.09"/>
<text text-anchor="middle" x="126.41" y="-18.3" font-family="Times,serif" font-size="14.00">Use systemd&#45;resolved</text>
</g>
<!-- networkmanager_running_with_systemdresolved&#45;&gt;use_systemdresolved -->
<g id="edge10" class="edge">
<title>networkmanager_running_with_systemdresolved&#45;&gt;use_systemdresolved</title>
<path fill="none" stroke="black" d="M136.97,-210.32C102.33,-199.32 65.09,-180.57 44.41,-148.74 31.39,-128.71 34.56,-116.76 44.41,-95 52.45,-77.23 67.28,-62.11 82.15,-50.39"/>
<polygon fill="black" stroke="black" points="84.46,-53.02 90.36,-44.22 80.26,-47.42 84.46,-53.02"/>
<text text-anchor="middle" x="53.41" y="-118.17" font-family="Times,serif" font-size="14.00">no</text>
</g>
<!-- networkmanager_running_by_resolvconf&#45;&gt;resolvconf_binary -->
<g id="edge19" class="edge">
<title>networkmanager_running_by_resolvconf&#45;&gt;resolvconf_binary</title>
<path fill="none" stroke="black" d="M886.4,-200.21C900.87,-184.22 919.47,-163.68 933.86,-147.78"/>
<polygon fill="black" stroke="black" points="936.84,-149.7 940.96,-139.94 931.65,-145 936.84,-149.7"/>
<text text-anchor="middle" x="924.41" y="-170.54" font-family="Times,serif" font-size="14.00">no</text>
</g>
<!-- use_networkmanager -->
<g id="node13" class="node">
<title>use_networkmanager</title>
<polygon fill="none" stroke="black" points="608.73,-14.54 608.73,-29.46 537.07,-40 435.74,-40 364.09,-29.46 364.09,-14.54 435.74,-4 537.07,-4 608.73,-14.54"/>
<polygon fill="none" stroke="black" points="612.72,-11.09 612.72,-32.91 537.37,-44 435.45,-44 360.09,-32.91 360.09,-11.09 435.45,0 537.37,0 612.72,-11.09"/>
<text text-anchor="middle" x="486.41" y="-18.3" font-family="Times,serif" font-size="14.00">Use NetworkManager</text>
</g>
<!-- networkmanager_running_by_resolvconf&#45;&gt;use_networkmanager -->
<g id="edge18" class="edge">
<title>networkmanager_running_by_resolvconf&#45;&gt;use_networkmanager</title>
<path fill="none" stroke="black" d="M837.44,-200.63C794.12,-159.46 708.26,-80.11 671.41,-62 656.12,-54.49 622.84,-46.66 588.66,-40.01"/>
<polygon fill="black" stroke="black" points="589,-36.51 578.52,-38.07 587.69,-43.38 589,-36.51"/>
<text text-anchor="middle" x="792.91" y="-118.17" font-family="Times,serif" font-size="14.00">yes</text>
</g>
<!-- nm_backend_is_systemdresolved&#45;&gt;use_systemdresolved -->
<g id="edge21" class="edge">
<title>nm_backend_is_systemdresolved&#45;&gt;use_systemdresolved</title>
<path fill="none" stroke="black" d="M193.5,-95.16C181.06,-81.78 165.81,-65.38 153,-51.6"/>
<polygon fill="black" stroke="black" points="155.54,-49.19 146.17,-44.25 150.41,-53.96 155.54,-49.19"/>
<text text-anchor="middle" x="184.41" y="-65.8" font-family="Times,serif" font-size="14.00">no</text>
</g>
<!-- nm_backend_is_systemdresolved&#45;&gt;use_networkmanager -->
<g id="edge20" class="edge">
<title>nm_backend_is_systemdresolved&#45;&gt;use_networkmanager</title>
<path fill="none" stroke="black" d="M281.16,-97.68C323.33,-82.33 378.49,-62.26 421,-46.8"/>
<polygon fill="black" stroke="black" points="422.21,-50.08 430.42,-43.37 419.82,-43.5 422.21,-50.08"/>
<text text-anchor="middle" x="388.91" y="-65.8" font-family="Times,serif" font-size="14.00">yes</text>
</g>
<!-- networkmanager_running&#45;&gt;overwrite -->
<g id="edge13" class="edge">
<title>networkmanager_running&#45;&gt;overwrite</title>
<path fill="none" stroke="black" d="M552.73,-104.42C579.17,-92.27 616.32,-75.57 649.41,-62 661.85,-56.9 675.23,-51.68 688.11,-46.79"/>
<polygon fill="black" stroke="black" points="689.72,-49.93 697.84,-43.13 687.25,-43.38 689.72,-49.93"/>
<text text-anchor="middle" x="658.41" y="-65.8" font-family="Times,serif" font-size="14.00">no</text>
</g>
<!-- networkmanager_running&#45;&gt;use_networkmanager -->
<g id="edge12" class="edge">
<title>networkmanager_running&#45;&gt;use_networkmanager</title>
<path fill="none" stroke="black" d="M512.01,-103.82C507.67,-90.13 501.46,-70.53 496.25,-54.06"/>
<polygon fill="black" stroke="black" points="499.51,-52.77 493.15,-44.29 492.83,-54.88 499.51,-52.77"/>
<text text-anchor="middle" x="515.91" y="-65.8" font-family="Times,serif" font-size="14.00">yes</text>
</g>
<!-- resolvconf_binary&#45;&gt;overwrite -->
<g id="edge14" class="edge">
<title>resolvconf_binary&#45;&gt;overwrite</title>
<path fill="none" stroke="black" d="M921.97,-104.27C890.27,-88.98 842.77,-66.08 806.26,-48.48"/>
<polygon fill="black" stroke="black" points="807.76,-45.32 797.24,-44.13 804.72,-51.63 807.76,-45.32"/>
<text text-anchor="middle" x="869.41" y="-65.8" font-family="Times,serif" font-size="14.00">no</text>
</g>
<!-- use_resolvconf -->
<g id="node14" class="node">
<title>use_resolvconf</title>
<polygon fill="none" stroke="black" points="1243.07,-14.54 1243.07,-29.46 1192.89,-40 1121.93,-40 1071.75,-29.46 1071.75,-14.54 1121.93,-4 1192.89,-4 1243.07,-14.54"/>
<polygon fill="none" stroke="black" points="1247.06,-11.3 1247.06,-32.7 1193.3,-44 1121.51,-44 1067.76,-32.7 1067.76,-11.3 1121.51,0 1193.3,0 1247.06,-11.3"/>
<text text-anchor="middle" x="1157.41" y="-18.3" font-family="Times,serif" font-size="14.00">Use resolvconf</text>
</g>
<!-- resolvconf_binary&#45;&gt;use_resolvconf -->
<g id="edge15" class="edge">
<title>resolvconf_binary&#45;&gt;use_resolvconf</title>
<path fill="none" stroke="black" d="M990.5,-104.27C1022.38,-88.75 1070.38,-65.38 1106.74,-47.67"/>
<polygon fill="black" stroke="black" points="1108.72,-50.6 1116.18,-43.07 1105.66,-44.3 1108.72,-50.6"/>
<text text-anchor="middle" x="1086.91" y="-65.8" font-family="Times,serif" font-size="14.00">yes</text>
</g>
</g>
</svg>
